<mxfile host="app.diagrams.net" modified="2023-01-06T09:41:34.230Z" agent="5.0 (Macintosh; Intel Mac OS X 10_15_7) AppleWebKit/537.36 (KHTML, like Gecko) Chrome/108.0.0.0 Safari/537.36" version="20.7.4" etag="Jrex1KlAw7lYSjij8y0e" type="github">
  <diagram id="s660lxXuMosV-s8z8PWf" name="第 1 页">
    <mxGraphModel dx="954" dy="559" grid="1" gridSize="10" guides="1" tooltips="1" connect="1" arrows="1" fold="1" page="1" pageScale="1" pageWidth="827" pageHeight="1169" math="0" shadow="0">
      <root>
        <mxCell id="0" />
        <mxCell id="1" parent="0" />
        <mxCell id="chjkS6KZSKHeHpag7bU6-3" value="" style="edgeStyle=orthogonalEdgeStyle;rounded=0;orthogonalLoop=1;jettySize=auto;html=1;fontSize=14;strokeWidth=2;" edge="1" parent="1" source="chjkS6KZSKHeHpag7bU6-1" target="chjkS6KZSKHeHpag7bU6-2">
          <mxGeometry relative="1" as="geometry" />
        </mxCell>
        <mxCell id="chjkS6KZSKHeHpag7bU6-1" value="&lt;font style=&quot;font-size: 14px;&quot;&gt;配置流程&lt;/font&gt;" style="rounded=0;whiteSpace=wrap;html=1;fillColor=#dae8fc;strokeColor=#6c8ebf;strokeWidth=2;" vertex="1" parent="1">
          <mxGeometry x="60" y="110" width="120" height="60" as="geometry" />
        </mxCell>
        <mxCell id="chjkS6KZSKHeHpag7bU6-5" value="" style="edgeStyle=orthogonalEdgeStyle;rounded=0;orthogonalLoop=1;jettySize=auto;html=1;fontSize=14;strokeWidth=2;" edge="1" parent="1" source="chjkS6KZSKHeHpag7bU6-2" target="chjkS6KZSKHeHpag7bU6-4">
          <mxGeometry relative="1" as="geometry" />
        </mxCell>
        <mxCell id="chjkS6KZSKHeHpag7bU6-2" value="&lt;font style=&quot;font-size: 14px;&quot;&gt;提交流程&lt;/font&gt;" style="rounded=0;whiteSpace=wrap;html=1;fillColor=#dae8fc;strokeColor=#6c8ebf;strokeWidth=2;" vertex="1" parent="1">
          <mxGeometry x="230" y="110" width="120" height="60" as="geometry" />
        </mxCell>
        <mxCell id="chjkS6KZSKHeHpag7bU6-7" value="" style="edgeStyle=orthogonalEdgeStyle;rounded=0;orthogonalLoop=1;jettySize=auto;html=1;strokeWidth=2;fontSize=14;" edge="1" parent="1" source="chjkS6KZSKHeHpag7bU6-4" target="chjkS6KZSKHeHpag7bU6-6">
          <mxGeometry relative="1" as="geometry" />
        </mxCell>
        <mxCell id="chjkS6KZSKHeHpag7bU6-4" value="&lt;font style=&quot;font-size: 14px;&quot;&gt;执行shell脚本&lt;/font&gt;" style="rounded=0;whiteSpace=wrap;html=1;fillColor=#dae8fc;strokeColor=#6c8ebf;strokeWidth=2;" vertex="1" parent="1">
          <mxGeometry x="400" y="110" width="120" height="60" as="geometry" />
        </mxCell>
        <mxCell id="chjkS6KZSKHeHpag7bU6-9" value="" style="edgeStyle=orthogonalEdgeStyle;rounded=0;orthogonalLoop=1;jettySize=auto;html=1;strokeWidth=2;fontSize=14;" edge="1" parent="1" source="chjkS6KZSKHeHpag7bU6-6" target="chjkS6KZSKHeHpag7bU6-8">
          <mxGeometry relative="1" as="geometry" />
        </mxCell>
        <mxCell id="chjkS6KZSKHeHpag7bU6-6" value="&lt;font style=&quot;font-size: 14px;&quot;&gt;执行TaskMain#main&lt;/font&gt;" style="rounded=0;whiteSpace=wrap;html=1;fillColor=#dae8fc;strokeColor=#6c8ebf;strokeWidth=2;" vertex="1" parent="1">
          <mxGeometry x="570" y="110" width="120" height="60" as="geometry" />
        </mxCell>
        <mxCell id="chjkS6KZSKHeHpag7bU6-11" value="" style="edgeStyle=orthogonalEdgeStyle;rounded=0;orthogonalLoop=1;jettySize=auto;html=1;strokeWidth=2;fontSize=14;" edge="1" parent="1" source="chjkS6KZSKHeHpag7bU6-8" target="chjkS6KZSKHeHpag7bU6-10">
          <mxGeometry relative="1" as="geometry" />
        </mxCell>
        <mxCell id="chjkS6KZSKHeHpag7bU6-8" value="&lt;span style=&quot;font-size: 14px;&quot;&gt;从数据库获取流程配置json&lt;/span&gt;" style="rounded=0;whiteSpace=wrap;html=1;fillColor=#dae8fc;strokeColor=#6c8ebf;strokeWidth=2;" vertex="1" parent="1">
          <mxGeometry x="750" y="110" width="120" height="60" as="geometry" />
        </mxCell>
        <mxCell id="chjkS6KZSKHeHpag7bU6-13" value="" style="edgeStyle=orthogonalEdgeStyle;rounded=0;orthogonalLoop=1;jettySize=auto;html=1;strokeWidth=2;fontSize=14;" edge="1" parent="1" source="chjkS6KZSKHeHpag7bU6-10" target="chjkS6KZSKHeHpag7bU6-12">
          <mxGeometry relative="1" as="geometry" />
        </mxCell>
        <mxCell id="chjkS6KZSKHeHpag7bU6-10" value="&lt;span style=&quot;font-size: 14px;&quot;&gt;根据引擎和模式选择DataProcess类&lt;/span&gt;" style="rounded=0;whiteSpace=wrap;html=1;fillColor=#dae8fc;strokeColor=#6c8ebf;strokeWidth=2;" vertex="1" parent="1">
          <mxGeometry x="750" y="210" width="120" height="60" as="geometry" />
        </mxCell>
        <mxCell id="chjkS6KZSKHeHpag7bU6-15" value="" style="edgeStyle=orthogonalEdgeStyle;rounded=0;orthogonalLoop=1;jettySize=auto;html=1;strokeWidth=2;fontSize=14;" edge="1" parent="1" source="chjkS6KZSKHeHpag7bU6-12" target="chjkS6KZSKHeHpag7bU6-14">
          <mxGeometry relative="1" as="geometry" />
        </mxCell>
        <mxCell id="chjkS6KZSKHeHpag7bU6-12" value="&lt;span style=&quot;font-size: 14px;&quot;&gt;根据引擎和模式选择DataProcess类&lt;/span&gt;" style="rounded=0;whiteSpace=wrap;html=1;fillColor=#dae8fc;strokeColor=#6c8ebf;strokeWidth=2;" vertex="1" parent="1">
          <mxGeometry x="570" y="210" width="120" height="60" as="geometry" />
        </mxCell>
        <mxCell id="chjkS6KZSKHeHpag7bU6-17" value="" style="edgeStyle=orthogonalEdgeStyle;rounded=0;orthogonalLoop=1;jettySize=auto;html=1;strokeWidth=2;fontSize=14;" edge="1" parent="1" source="chjkS6KZSKHeHpag7bU6-14" target="chjkS6KZSKHeHpag7bU6-16">
          <mxGeometry relative="1" as="geometry" />
        </mxCell>
        <mxCell id="chjkS6KZSKHeHpag7bU6-14" value="&lt;span style=&quot;font-size: 14px;&quot;&gt;算子拓扑排序&lt;/span&gt;" style="rounded=0;whiteSpace=wrap;html=1;fillColor=#dae8fc;strokeColor=#6c8ebf;strokeWidth=2;" vertex="1" parent="1">
          <mxGeometry x="400" y="210" width="120" height="60" as="geometry" />
        </mxCell>
        <mxCell id="chjkS6KZSKHeHpag7bU6-19" value="" style="edgeStyle=orthogonalEdgeStyle;rounded=0;orthogonalLoop=1;jettySize=auto;html=1;strokeWidth=2;fontSize=14;" edge="1" parent="1" source="chjkS6KZSKHeHpag7bU6-16" target="chjkS6KZSKHeHpag7bU6-18">
          <mxGeometry relative="1" as="geometry" />
        </mxCell>
        <mxCell id="chjkS6KZSKHeHpag7bU6-16" value="&lt;span style=&quot;font-size: 14px;&quot;&gt;执行source算子&lt;/span&gt;" style="rounded=0;whiteSpace=wrap;html=1;fillColor=#dae8fc;strokeColor=#6c8ebf;strokeWidth=2;" vertex="1" parent="1">
          <mxGeometry x="230" y="210" width="120" height="60" as="geometry" />
        </mxCell>
        <mxCell id="chjkS6KZSKHeHpag7bU6-21" value="" style="edgeStyle=orthogonalEdgeStyle;rounded=0;orthogonalLoop=1;jettySize=auto;html=1;strokeWidth=2;fontSize=14;" edge="1" parent="1" source="chjkS6KZSKHeHpag7bU6-18" target="chjkS6KZSKHeHpag7bU6-20">
          <mxGeometry relative="1" as="geometry" />
        </mxCell>
        <mxCell id="chjkS6KZSKHeHpag7bU6-18" value="&lt;span style=&quot;font-size: 14px;&quot;&gt;执行action算子&lt;/span&gt;" style="rounded=0;whiteSpace=wrap;html=1;fillColor=#dae8fc;strokeColor=#6c8ebf;strokeWidth=2;" vertex="1" parent="1">
          <mxGeometry x="60" y="210" width="120" height="60" as="geometry" />
        </mxCell>
        <mxCell id="chjkS6KZSKHeHpag7bU6-20" value="&lt;span style=&quot;font-size: 14px;&quot;&gt;执行sink算子&lt;/span&gt;" style="rounded=0;whiteSpace=wrap;html=1;fillColor=#dae8fc;strokeColor=#6c8ebf;strokeWidth=2;" vertex="1" parent="1">
          <mxGeometry x="60" y="310" width="120" height="60" as="geometry" />
        </mxCell>
      </root>
    </mxGraphModel>
  </diagram>
</mxfile>
